<svg xmlns="http://www.w3.org/2000/svg" width="140.744" height="53.478" viewBox="0 0 140.744 53.478">
  <g id="Group_6" data-name="Group 6" transform="translate(-671 -497)">
    <g id="Group_5" data-name="Group 5" transform="translate(671 497)">
      <path id="Path_1" data-name="Path 1" d="M391.4,192.888h2.548l5.971,9.184v-9.184h2.656v13.955h-2.555l-5.964-9.155v9.155H391.4Z" transform="translate(-327.354 -176.297)" fill="#14142d"/>
      <g id="Group_1" data-name="Group 1" transform="translate(76.337 19.958)">
        <path id="Path_2" data-name="Path 2" d="M459.393,213.395a2.6,2.6,0,0,0-1.012-1.4,2.935,2.935,0,0,0-1.754-.541,3.1,3.1,0,0,0-1.9.607,3.389,3.389,0,0,0-.95,1.338Zm2.59,2.04h-8.32a2.768,2.768,0,0,0,.963,1.75,3.02,3.02,0,0,0,2,.65,3.452,3.452,0,0,0,2.5-1.015l2.182,1.024a5.142,5.142,0,0,1-1.954,1.713,6.109,6.109,0,0,1-2.7.555,5.344,5.344,0,0,1-3.956-1.532,5.215,5.215,0,0,1-1.527-3.838,5.389,5.389,0,0,1,1.523-3.923,5.113,5.113,0,0,1,3.818-1.561,5.3,5.3,0,0,1,3.966,1.561,5.64,5.64,0,0,1,1.527,4.122Z" transform="translate(-451.158 -209.258)" fill="#14142d"/>
      </g>
      <path id="Path_3" data-name="Path 3" d="M500.579,210.55h2.535l2.075,5.872,2.234-5.872h1.55l2.193,5.806,2.078-5.806H515.8l-3.766,10.322h-1.641l-2.2-5.882-2.267,5.882H504.3Z" transform="translate(-414.075 -190.325)" fill="#14142d"/>
      <g id="Group_2" data-name="Group 2" transform="translate(101.121 19.959)">
        <path id="Path_4" data-name="Path 4" d="M577.024,211.678a2.7,2.7,0,0,0-2.021.82,2.842,2.842,0,0,0-.8,2.064,2.88,2.88,0,0,0,.816,2.115,2.762,2.762,0,0,0,2.05.826,2.653,2.653,0,0,0,1.987-.806,2.911,2.911,0,0,0,.783-2.116,2.875,2.875,0,0,0-.788-2.1,2.712,2.712,0,0,0-2.03-.806m2.685-2.154h2.58v8.842a5.849,5.849,0,0,1-1.053,3.852,5.27,5.27,0,0,1-4.26,1.67,7.465,7.465,0,0,1-2.552-.38,4.6,4.6,0,0,1-1.746-1.115,4.542,4.542,0,0,1-1.053-1.789h2.856a2.356,2.356,0,0,0,.977.66,4.043,4.043,0,0,0,1.414.223,3.726,3.726,0,0,0,1.679-.323,1.945,1.945,0,0,0,.9-.834,4.228,4.228,0,0,0,.261-1.765,4.289,4.289,0,0,1-1.432.982,4.545,4.545,0,0,1-1.7.3,4.666,4.666,0,0,1-3.51-1.5,5.817,5.817,0,0,1,.085-7.741,4.527,4.527,0,0,1,3.282-1.347,4.371,4.371,0,0,1,1.685.327,5.34,5.34,0,0,1,1.589,1.077Z" transform="translate(-571.626 -209.259)" fill="#14142d"/>
        <path id="Path_5" data-name="Path 5" d="M632.93,211.65a2.617,2.617,0,0,0-2,.849,3.392,3.392,0,0,0,.014,4.378,2.62,2.62,0,0,0,1.991.863,2.668,2.668,0,0,0,2.023-.849,3.1,3.1,0,0,0,.8-2.225,3.016,3.016,0,0,0-.8-2.182,2.7,2.7,0,0,0-2.033-.835m2.722-2.125h2.59v10.322h-2.59v-1.091a5.088,5.088,0,0,1-1.521,1.039,4.265,4.265,0,0,1-1.654.317,4.592,4.592,0,0,1-3.459-1.551,5.41,5.41,0,0,1-1.459-3.856,5.544,5.544,0,0,1,1.412-3.918,4.5,4.5,0,0,1,3.43-1.527,4.361,4.361,0,0,1,1.743.351,4.764,4.764,0,0,1,1.507,1.053Z" transform="translate(-616.053 -209.259)" fill="#14142d"/>
      </g>
      <path id="Path_6" data-name="Path 6" d="M685.3,192.057h2.59v3.8h1.537v2.229h-1.537v8.093H685.3v-8.093h-1.328v-2.229H685.3Z" transform="translate(-559.739 -175.637)" fill="#14142d"/>
      <g id="Group_3" data-name="Group 3" transform="translate(20.028 16.096)">
        <path id="Path_7" data-name="Path 7" d="M719.8,213.395a2.594,2.594,0,0,0-1.012-1.4,2.932,2.932,0,0,0-1.753-.541,3.1,3.1,0,0,0-1.9.607,3.386,3.386,0,0,0-.95,1.338Zm2.59,2.04h-8.32a2.768,2.768,0,0,0,.963,1.75,3.02,3.02,0,0,0,2,.65,3.452,3.452,0,0,0,2.5-1.015l2.182,1.024a5.142,5.142,0,0,1-1.954,1.713,6.109,6.109,0,0,1-2.7.555,5.344,5.344,0,0,1-3.956-1.532,5.215,5.215,0,0,1-1.527-3.838,5.389,5.389,0,0,1,1.523-3.923,5.112,5.112,0,0,1,3.818-1.561,5.3,5.3,0,0,1,3.966,1.561,5.64,5.64,0,0,1,1.527,4.122Z" transform="translate(-601.683 -205.395)" fill="#14142d"/>
        <path id="Path_8" data-name="Path 8" d="M328.163,200.14l-.4.483a5.453,5.453,0,0,1-6.747,1.357,4.548,4.548,0,0,1-1.775-1.747,4.777,4.777,0,0,1-.649-2.412A4.489,4.489,0,0,1,320,194.5a4.928,4.928,0,0,1,3.57-1.376,5.038,5.038,0,0,1,4.176,1.97l.381.487,2.193-1.347-.366-.59a6.115,6.115,0,0,0-1.48-1.632,7.452,7.452,0,0,0-2.181-1.1,8.476,8.476,0,0,0-2.65-.428,8.2,8.2,0,0,0-3.972.97,7.248,7.248,0,0,0-2.814,2.723,7.348,7.348,0,0,0-1.024,3.766,6.941,6.941,0,0,0,2.193,5.157,7.608,7.608,0,0,0,5.48,2.107h.3a8.638,8.638,0,0,0,3.507-.825,6.939,6.939,0,0,0,2.616-2.2l.416-.582Z" transform="translate(-287.366 -190.482)" fill="#14142d"/>
        <path id="Path_9" data-name="Path 9" d="M189.126,198.491a4.419,4.419,0,0,0-2.038-1.559c-1.124-.449-1.774-.677-2.347-.878l-.046-.016c-.648-.228-1.319-.464-2.545-.961-.586-.237-.563-.561-.547-.8.029-.491.913-1.083,2.054-1.14a3.1,3.1,0,0,1,2.928,1.159l.375.579,2.2-1.42-.375-.581a5.641,5.641,0,0,0-5.252-2.355,5.7,5.7,0,0,0-2.951.962,3.506,3.506,0,0,0-1.6,2.63,3.31,3.31,0,0,0,2.179,3.4c1.306.529,2.016.779,2.705,1.021l.029.01c.614.216,1.193.419,2.235.836a1.836,1.836,0,0,1,.836.61,1.273,1.273,0,0,1,.154.961c-.185,1.056-1.822,1.709-3.232,1.709-2.152,0-3.421-1.128-3.724-2.246l-.181-.667-2.541.687.2.677a5.4,5.4,0,0,0,2.125,2.941,7.09,7.09,0,0,0,4.121,1.228h.063a7.3,7.3,0,0,0,3.524-.911,4.3,4.3,0,0,0,2.234-2.976,3.809,3.809,0,0,0-.579-2.893Z" transform="translate(-177.447 -190.502)" fill="#14142d"/>
        <path id="Path_10" data-name="Path 10" d="M243.154,196a4.473,4.473,0,0,1,1.134-1.753h0a4.211,4.211,0,0,1,2.94-1.093,4.732,4.732,0,0,1,1.99.444,4.123,4.123,0,0,1,1.493,1.137,4.366,4.366,0,0,1,.678,1.273Zm11.319,1.817a7.536,7.536,0,0,0-1.545-4.6,6.948,6.948,0,0,0-5.724-2.721,6.74,6.74,0,0,0-5.573,2.659,7.647,7.647,0,0,0,.288,9.8,6.741,6.741,0,0,0,5.374,2.269h.3v-.005a7.671,7.671,0,0,0,2.472-.464,6.906,6.906,0,0,0,2.223-1.386,8.251,8.251,0,0,0,1.423-1.814l.146-.252-2.265-1.416-.16.25a6.422,6.422,0,0,1-1.086,1.351,4.55,4.55,0,0,1-1.438.824,5.08,5.08,0,0,1-1.76.313,4.114,4.114,0,0,1-3.062-1.286,4.642,4.642,0,0,1-1.263-2.812l11.667.008Z" transform="translate(-227.129 -190.487)" fill="#14142d"/>
      </g>
      <path id="Path_11" data-name="Path 11" d="M97.876,112.244,80.1,130.807l3.821,12.307L97.876,128.54Z" transform="translate(-80.098 -112.244)" fill="#14142d"/>
      <path id="Path_12" data-name="Path 12" d="M80.1,218.772,97.875,237.39v-16.3L80.1,202.476Z" transform="translate(-80.097 -183.913)" fill="#ed6a0a"/>
      <g id="Group_4" data-name="Group 4" transform="translate(21.575 38.369)">
        <path id="Path_13" data-name="Path 13" d="M186.016,299.8a3.6,3.6,0,0,1,3.566-.9,3.132,3.132,0,0,1,.807.358,4.828,4.828,0,0,1,.561.425,2.351,2.351,0,0,1,.349.366l.112.151-.5.449c-.02-.032-.049-.075-.088-.129a2.712,2.712,0,0,0-.273-.285,2.649,2.649,0,0,0-1.127-.654,2.8,2.8,0,0,0-.859-.132,2.735,2.735,0,0,0-2.024.834,2.994,2.994,0,0,0,0,4.127,2.736,2.736,0,0,0,2.024.834,2.935,2.935,0,0,0,.859-.124,2.678,2.678,0,0,0,.68-.3,4.646,4.646,0,0,0,.476-.349,1.589,1.589,0,0,0,.293-.3l.093-.122.5.454a1.765,1.765,0,0,1-.12.154,4.526,4.526,0,0,1-.356.344,4.368,4.368,0,0,1-.583.444,3.369,3.369,0,0,1-.807.349,3.6,3.6,0,0,1-3.578-5.988Z" transform="translate(-184.967 -298.75)" fill="#14142d"/>
        <path id="Path_14" data-name="Path 14" d="M221.122,312.172a1.727,1.727,0,0,0,1.7,1.6,1.785,1.785,0,0,0,.834-.2,1.717,1.717,0,0,0,.546-.4l.171-.2.449.449-.085.11a2.5,2.5,0,0,1-.244.239,2.585,2.585,0,0,1-.4.3,2.737,2.737,0,0,1-.561.239,2.3,2.3,0,0,1-.705.11,2.269,2.269,0,0,1-1.688-.729,2.574,2.574,0,0,1-.007-3.537,2.267,2.267,0,0,1,3.285-.049,2.372,2.372,0,0,1,.659,1.719l-.049.361Zm.551-1.654a1.742,1.742,0,0,0-.551,1.054h3.249a1.715,1.715,0,0,0-.524-1.073,1.5,1.5,0,0,0-1.076-.424A1.545,1.545,0,0,0,221.673,310.519Z" transform="translate(-213.13 -307.226)" fill="#14142d"/>
        <path id="Path_15" data-name="Path 15" d="M249.771,310.221q.019-.029.059-.083a1.957,1.957,0,0,1,.185-.2,2,2,0,0,1,.31-.246,1.995,1.995,0,0,1,.993-.276,1.87,1.87,0,0,1,1.41.561,2.051,2.051,0,0,1,.541,1.488v2.849h-.7V311.47a1.41,1.41,0,0,0-.364-1.012,1.231,1.231,0,0,0-.934-.383,1.418,1.418,0,0,0-1.068.449,1.591,1.591,0,0,0-.429,1.146v2.649h-.7v-4.8h.7Z" transform="translate(-235.885 -307.226)" fill="#14142d"/>
        <path id="Path_16" data-name="Path 16" d="M275.734,302.141h.649v1.6h1.049v.649h-1.049v2.849q0,.751.649.746a1.337,1.337,0,0,0,.32-.039q.159-.039.241-.068l.088-.039v.649a1.432,1.432,0,0,1-.678.147,1.278,1.278,0,0,1-.968-.363,1.431,1.431,0,0,1-.349-1.032V304.39h-.9v-.649h.551q.4,0,.4-.5Z" transform="translate(-256.305 -301.443)" fill="#14142d"/>
        <path id="Path_17" data-name="Path 17" d="M297.2,310.123h-.3a1.459,1.459,0,0,0-1.059.429,1.493,1.493,0,0,0-.439,1.117v2.649h-.7v-4.8h.7v.649q.019-.029.058-.081a1.674,1.674,0,0,1,.185-.18,2.078,2.078,0,0,1,.315-.229,1.933,1.933,0,0,1,.449-.181,2.139,2.139,0,0,1,.593-.08h.2Z" transform="translate(-272.128 -307.226)" fill="#14142d"/>
        <path id="Path_18" data-name="Path 18" d="M312.989,311.27a1.159,1.159,0,0,0-.337-.863,1.178,1.178,0,0,0-.863-.332,1.531,1.531,0,0,0-.715.173,1.577,1.577,0,0,0-.486.354l-.151.171-.449-.449c.019-.026.046-.059.08-.1a2.585,2.585,0,0,1,.224-.215,2.924,2.924,0,0,1,.363-.275,2.054,2.054,0,0,1,.5-.217,2.135,2.135,0,0,1,.632-.1,1.855,1.855,0,0,1,1.358.532,1.777,1.777,0,0,1,.539,1.317v3.049h-.7v-.649c-.013.02-.033.046-.061.08a2.01,2.01,0,0,1-.185.181,2.032,2.032,0,0,1-.31.229,1.854,1.854,0,0,1-.437.178,2.011,2.011,0,0,1-.559.078,1.78,1.78,0,0,1-1.207-.424,1.259,1.259,0,0,1-.49-.971,1.324,1.324,0,0,1,.361-.968,1.828,1.828,0,0,1,1.039-.48Zm-.437,2.054a1.573,1.573,0,0,0,.437-1.151v-.3l-1.649.3q-.9.171-.9.849a.657.657,0,0,0,.266.534,1.149,1.149,0,0,0,.734.212A1.5,1.5,0,0,0,312.552,313.324Z" transform="translate(-284.071 -307.226)" fill="#14142d"/>
        <path id="Path_19" data-name="Path 19" d="M337.617,306.22h-.7v-7h.7Z" transform="translate(-305.658 -299.127)" fill="#14142d"/>
        <path id="Path_20" data-name="Path 20" d="M360.655,300.845a2.257,2.257,0,0,1-.324.541q-.19.232-.38.422a3.477,3.477,0,0,1-.317.288l-.141.1,1.6,1.951a2.065,2.065,0,0,0,.124-.21,3.5,3.5,0,0,0,.2-.58,3.31,3.31,0,0,0,.124-.907h.649a4.258,4.258,0,0,1-.066.749,3.836,3.836,0,0,1-.161.629,4.854,4.854,0,0,1-.195.466q-.1.2-.159.3l-.068.1a1.828,1.828,0,0,0,.115.171,1.574,1.574,0,0,0,.285.266.662.662,0,0,0,.4.163l.3-.049v.649a1.346,1.346,0,0,1-.351.049,1,1,0,0,1-.388-.078,1.1,1.1,0,0,1-.32-.2,2.766,2.766,0,0,1-.237-.242,1.77,1.77,0,0,1-.154-.2l-.049-.078-.08.083q-.051.054-.224.2a2.214,2.214,0,0,1-.373.246,2.478,2.478,0,0,1-.515.188,2.562,2.562,0,0,1-.656.083,2.087,2.087,0,0,1-1.439-.5,1.548,1.548,0,0,1-.561-1.2,1.778,1.778,0,0,1,.141-.69,2.234,2.234,0,0,1,.337-.573,4.7,4.7,0,0,1,.393-.419,2.3,2.3,0,0,1,.339-.273l.142-.093-.11-.112q-.071-.073-.256-.3a4.745,4.745,0,0,1-.32-.446,3.15,3.15,0,0,1-.249-.5,1.448,1.448,0,0,1-.115-.532,1.475,1.475,0,0,1,.464-1.093,1.56,1.56,0,0,1,1.134-.454,1.579,1.579,0,0,1,1.134.444,1.411,1.411,0,0,1,.463,1.054A1.5,1.5,0,0,1,360.655,300.845Zm-1.612,1.749-.115.09q-.076.061-.266.246a3.58,3.58,0,0,0-.334.371,2.385,2.385,0,0,0-.266.444,1.166,1.166,0,0,0-.122.5.923.923,0,0,0,.361.763,1.557,1.557,0,0,0,.99.285,1.889,1.889,0,0,0,.749-.149,1.613,1.613,0,0,0,.5-.3l.151-.151Zm-.576-1.668a3.625,3.625,0,0,0,.444.59l.229.229.11-.083a3.094,3.094,0,0,0,.242-.219,3.25,3.25,0,0,0,.3-.332,2.224,2.224,0,0,0,.239-.39.968.968,0,0,0,.11-.424.848.848,0,0,0-.271-.639,1.019,1.019,0,0,0-1.356,0,.848.848,0,0,0-.271.639A1.243,1.243,0,0,0,358.467,300.926Z" transform="translate(-321.84 -298.75)" fill="#14142d"/>
        <path id="Path_21" data-name="Path 21" d="M403.48,305.523v.7h-4.9v-7h4.8v.7h-4.044v2.3h3.244v.7h-3.244v2.6Z" transform="translate(-354.636 -299.127)" fill="#14142d"/>
        <path id="Path_22" data-name="Path 22" d="M429.746,311.27a1.159,1.159,0,0,0-.337-.863,1.179,1.179,0,0,0-.863-.332,1.532,1.532,0,0,0-.715.173,1.576,1.576,0,0,0-.485.354l-.151.171-.449-.449c.02-.026.046-.059.081-.1a2.572,2.572,0,0,1,.224-.215,2.944,2.944,0,0,1,.364-.275,2.051,2.051,0,0,1,.5-.217,2.136,2.136,0,0,1,.632-.1,1.856,1.856,0,0,1,1.359.532,1.777,1.777,0,0,1,.539,1.317v3.049h-.7v-.649c-.013.02-.033.046-.061.08a2.378,2.378,0,0,1-.5.41,1.843,1.843,0,0,1-.437.178,2.011,2.011,0,0,1-.559.078,1.781,1.781,0,0,1-1.207-.424,1.259,1.259,0,0,1-.49-.971,1.324,1.324,0,0,1,.361-.968,1.828,1.828,0,0,1,1.039-.48Zm-.437,2.054a1.573,1.573,0,0,0,.437-1.151v-.3l-1.649.3q-.9.171-.9.849a.656.656,0,0,0,.266.534,1.147,1.147,0,0,0,.734.212A1.5,1.5,0,0,0,429.309,313.324Z" transform="translate(-376.808 -307.226)" fill="#14142d"/>
        <path id="Path_23" data-name="Path 23" d="M454.082,310.572a1.09,1.09,0,0,0-.115-.139,1.445,1.445,0,0,0-.349-.22,1.273,1.273,0,0,0-.586-.139.973.973,0,0,0-.649.21.624.624,0,0,0-.249.488.532.532,0,0,0,.268.463,2.283,2.283,0,0,0,.649.281q.381.105.761.239a1.523,1.523,0,0,1,.649.439,1.133,1.133,0,0,1,.268.778,1.311,1.311,0,0,1-.473,1.032,1.871,1.871,0,0,1-1.273.412,2.28,2.28,0,0,1-.641-.088,2.005,2.005,0,0,1-.495-.21,2.734,2.734,0,0,1-.339-.246,1.6,1.6,0,0,1-.212-.212l-.064-.093.5-.5q.019.029.054.076a1.879,1.879,0,0,0,.154.166,1.853,1.853,0,0,0,.256.215,1.412,1.412,0,0,0,.351.169,1.336,1.336,0,0,0,.434.073,1.189,1.189,0,0,0,.778-.224.709.709,0,0,0,.271-.571.57.57,0,0,0-.271-.486,2.217,2.217,0,0,0-.649-.3q-.378-.11-.759-.244a1.609,1.609,0,0,1-.651-.424,1.054,1.054,0,0,1-.271-.749,1.231,1.231,0,0,1,.456-.947,1.659,1.659,0,0,1,1.144-.4,2.266,2.266,0,0,1,.544.066,1.788,1.788,0,0,1,.437.161,2.707,2.707,0,0,1,.3.2,1.892,1.892,0,0,1,.193.158l.073.073Z" transform="translate(-396.455 -307.226)" fill="#14142d"/>
        <path id="Path_24" data-name="Path 24" d="M472.817,302.141h.649v1.6h1.049v.649h-1.049v2.849q0,.751.649.746a1.337,1.337,0,0,0,.32-.039q.159-.039.241-.068l.088-.039v.649a1.431,1.431,0,0,1-.678.147,1.279,1.279,0,0,1-.968-.363,1.431,1.431,0,0,1-.349-1.032V304.39h-.9v-.649h.551q.4,0,.4-.5Z" transform="translate(-412.843 -301.443)" fill="#14142d"/>
        <path id="Path_25" data-name="Path 25" d="M488.834,312.172a1.727,1.727,0,0,0,1.7,1.6,1.785,1.785,0,0,0,.834-.2,1.713,1.713,0,0,0,.546-.4l.171-.2.449.449-.085.11a2.5,2.5,0,0,1-.244.239,2.584,2.584,0,0,1-.4.3,2.743,2.743,0,0,1-.561.239,2.3,2.3,0,0,1-.705.11,2.27,2.27,0,0,1-1.688-.729,2.574,2.574,0,0,1-.007-3.537,2.211,2.211,0,0,1,1.646-.729,2.188,2.188,0,0,1,1.639.681,2.372,2.372,0,0,1,.659,1.719l-.049.361Zm.551-1.654a1.743,1.743,0,0,0-.551,1.054h3.249a1.714,1.714,0,0,0-.524-1.073,1.5,1.5,0,0,0-1.076-.424A1.545,1.545,0,0,0,489.386,310.519Z" transform="translate(-425.767 -307.226)" fill="#14142d"/>
        <path id="Path_26" data-name="Path 26" d="M519.283,310.123h-.3a1.459,1.459,0,0,0-1.058.429,1.493,1.493,0,0,0-.439,1.117v2.649h-.7v-4.8h.7v.649c.013-.02.032-.047.058-.081a1.66,1.66,0,0,1,.185-.18,2.071,2.071,0,0,1,.315-.229,1.93,1.93,0,0,1,.449-.181,2.136,2.136,0,0,1,.593-.08h.2Z" transform="translate(-448.521 -307.226)" fill="#14142d"/>
        <path id="Path_27" data-name="Path 27" d="M534.227,310.221q.019-.029.058-.083a1.952,1.952,0,0,1,.185-.2,1.994,1.994,0,0,1,.31-.246,1.995,1.995,0,0,1,.993-.276,1.871,1.871,0,0,1,1.41.561,2.052,2.052,0,0,1,.542,1.488v2.849h-.7V311.47a1.41,1.41,0,0,0-.364-1.012,1.231,1.231,0,0,0-.934-.383,1.417,1.417,0,0,0-1.068.449,1.59,1.59,0,0,0-.429,1.146v2.649h-.7v-4.8h.7Z" transform="translate(-461.82 -307.226)" fill="#14142d"/>
        <path id="Path_28" data-name="Path 28" d="M577.251,305.523v.7h-4.9v-7h4.8v.7H573.1v2.3h3.244v.7H573.1v2.6Z" transform="translate(-492.657 -299.127)" fill="#14142d"/>
        <path id="Path_29" data-name="Path 29" d="M605.469,314.065q-.02.029-.059.08a1.7,1.7,0,0,1-.183.181,2.019,2.019,0,0,1-.31.229,1.844,1.844,0,0,1-.436.178,2.014,2.014,0,0,1-.559.078,1.84,1.84,0,0,1-1.393-.583,2.109,2.109,0,0,1-.553-1.515v-2.8h.7v2.8a1.446,1.446,0,0,0,.39,1.039,1.269,1.269,0,0,0,.956.41,1.353,1.353,0,0,0,1.029-.449,1.611,1.611,0,0,0,.42-1.146v-2.649h.7v4.8h-.7Z" transform="translate(-516.186 -307.621)" fill="#14142d"/>
        <path id="Path_30" data-name="Path 30" d="M632.885,310.123h-.3a1.459,1.459,0,0,0-1.059.429,1.492,1.492,0,0,0-.439,1.117v2.649h-.7v-4.8h.7v.649q.019-.029.058-.081a1.636,1.636,0,0,1,.186-.18,2.057,2.057,0,0,1,.315-.229,1.93,1.93,0,0,1,.449-.181,2.137,2.137,0,0,1,.593-.08h.2Z" transform="translate(-538.753 -307.226)" fill="#14142d"/>
        <path id="Path_31" data-name="Path 31" d="M646.139,310.145a2.435,2.435,0,0,1,3.466,0,2.567,2.567,0,0,1,0,3.549,2.441,2.441,0,0,1-3.466,0,2.561,2.561,0,0,1,0-3.549Zm2.966.464a1.693,1.693,0,0,0-2.468,0,1.924,1.924,0,0,0,0,2.62,1.687,1.687,0,0,0,2.468,0,1.93,1.93,0,0,0,0-2.624Z" transform="translate(-550.696 -307.226)" fill="#14142d"/>
        <path id="Path_32" data-name="Path 32" d="M675.981,316.416h-.7v-6.893h.7v.751a1.065,1.065,0,0,1,.071-.09,2.751,2.751,0,0,1,.21-.207,2.234,2.234,0,0,1,.344-.261,2.086,2.086,0,0,1,.475-.2,2,2,0,0,1,.6-.09,2.14,2.14,0,0,1,1.607.736,2.6,2.6,0,0,1,0,3.525,2.14,2.14,0,0,1-1.61.734,2.01,2.01,0,0,1-.593-.088,2.039,2.039,0,0,1-.48-.21,2.7,2.7,0,0,1-.339-.246,1.936,1.936,0,0,1-.217-.212l-.068-.093Zm.524-3.2a1.584,1.584,0,0,0,1.173.554,1.47,1.47,0,0,0,1.11-.539,1.988,1.988,0,0,0,0-2.615,1.471,1.471,0,0,0-1.11-.539,1.585,1.585,0,0,0-1.173.554,1.856,1.856,0,0,0,0,2.586Z" transform="translate(-574.412 -307.226)" fill="#14142d"/>
        <path id="Path_33" data-name="Path 33" d="M703.161,312.172a1.727,1.727,0,0,0,1.7,1.6,1.784,1.784,0,0,0,.834-.2,1.711,1.711,0,0,0,.546-.4l.171-.2.449.449-.085.11a2.511,2.511,0,0,1-.244.239,2.6,2.6,0,0,1-.405.3,2.735,2.735,0,0,1-.561.239,2.3,2.3,0,0,1-.705.11,2.269,2.269,0,0,1-1.688-.729,2.574,2.574,0,0,1-.008-3.537,2.268,2.268,0,0,1,3.286-.049,2.372,2.372,0,0,1,.658,1.719l-.049.361Zm.551-1.654a1.743,1.743,0,0,0-.551,1.054h3.249a1.713,1.713,0,0,0-.524-1.073,1.5,1.5,0,0,0-1.076-.424A1.545,1.545,0,0,0,703.712,310.519Z" transform="translate(-596 -307.226)" fill="#14142d"/>
      </g>
    </g>
  </g>
</svg>
